# Blender v2.78 (sub 0) OBJ File: 'CHAHIN_WOODEN_CHAIR.blend'
# www.blender.org
mtllib CHAHIN_WOODEN_CHAIR.mtl
o Cube.008_Cube.007
v -0.428935 -0.257405 0.524995
v -0.428935 -0.146791 0.524995
v -0.428935 -0.257405 -0.527939
v -0.428935 -0.146791 -0.527939
v 0.623999 -0.257405 0.524995
v 0.623999 -0.146791 0.524995
v 0.623999 -0.257405 -0.527939
v 0.623999 -0.146791 -0.527939
v 0.483293 -1.218010 0.468075
v 0.483293 -0.186768 0.468075
v 0.483293 -1.218010 0.373606
v 0.483293 -0.186768 0.373606
v 0.577763 -1.218010 0.468075
v 0.577763 -0.186768 0.468075
v 0.577763 -1.218010 0.373606
v 0.577763 -0.186768 0.373606
v 0.483293 -1.218010 -0.371398
v 0.483293 -0.186768 -0.371398
v 0.483293 -1.218010 -0.465867
v 0.483293 -0.186768 -0.465867
v 0.577763 -1.218010 -0.371398
v 0.577763 -0.186768 -0.371398
v 0.577763 -1.218010 -0.465867
v 0.577763 -0.186768 -0.465867
v -0.360049 -1.218010 0.468075
v -0.360049 1.141155 0.468075
v -0.360049 -1.218010 0.373606
v -0.360049 1.141155 0.373606
v -0.265579 -1.218010 0.468075
v -0.265579 1.141155 0.468075
v -0.265579 -1.218010 0.373606
v -0.265579 1.141155 0.373606
v -0.360049 -1.218010 -0.371398
v -0.360049 1.141155 -0.371398
v -0.360049 -1.218010 -0.465867
v -0.360049 1.141155 -0.465867
v -0.265579 -1.218010 -0.371398
v -0.265579 1.141155 -0.371398
v -0.265579 -1.218010 -0.465867
v -0.265579 1.141155 -0.465867
v -0.277371 0.569654 0.524995
v -0.277371 1.114080 0.524995
v -0.277371 0.569654 -0.527939
v -0.277371 1.114080 -0.527939
v -0.195703 0.569654 0.524995
v -0.195703 1.114080 0.524995
v -0.195703 0.569654 -0.527939
v -0.195703 1.114080 -0.527939
v -0.337257 0.569654 -0.176961
v -0.337257 0.569654 0.174017
v -0.337257 1.114080 0.174017
v -0.337257 1.114080 -0.176961
v -0.255589 0.569654 0.174017
v -0.255589 0.569654 -0.176961
v -0.255589 1.114080 -0.176961
v -0.255589 1.114080 0.174017
vt 0.8439 0.0938
vt 0.6650 0.0938
vt 0.6650 0.0469
vt 0.8439 0.0469
vt 0.6650 0.0000
vt 0.8439 0.0000
vt 0.8439 0.0469
vt 0.6650 0.0469
vt 0.6650 0.0938
vt 0.4861 0.0938
vt 0.4861 0.0469
vt 0.4861 0.1407
vt 0.6650 0.1407
vt 0.4861 0.0469
vt 0.4861 0.0000
vt 0.6650 0.0000
vt 0.6650 0.0469
vt 0.6650 0.1875
vt 0.4861 0.1875
vt 0.4861 0.1407
vt 0.6650 0.1407
vt 0.8599 0.4371
vt 0.8599 0.0000
vt 0.8760 0.0000
vt 0.8760 0.4371
vt 0.9241 0.4371
vt 0.9241 0.0000
vt 0.9402 0.0000
vt 0.9402 0.4371
vt 0.9723 0.0000
vt 0.9723 0.4371
vt 0.9562 0.4371
vt 0.9562 0.0000
vt 0.8760 0.4371
vt 0.8760 0.0000
vt 0.8920 0.0000
vt 0.8920 0.4371
vt 0.6650 0.1617
vt 0.6810 0.1617
vt 0.6810 0.1659
vt 0.6650 0.1659
vt 0.8439 0.4371
vt 0.8439 0.0000
vt 0.8599 0.0000
vt 0.8599 0.4371
vt 0.9081 0.4371
vt 0.9081 0.0000
vt 0.9241 0.0000
vt 0.9241 0.4371
vt 0.9562 0.0000
vt 0.9562 0.4371
vt 0.9402 0.4371
vt 0.9402 0.0000
vt 0.8920 0.4371
vt 0.8920 0.0000
vt 0.9081 0.0000
vt 0.9081 0.4371
vt 0.6650 0.1533
vt 0.6650 0.1491
vt 0.6810 0.1491
vt 0.6810 0.1533
vt 0.3738 1.0000
vt 0.3738 0.0000
vt 0.3898 0.0000
vt 0.3898 1.0000
vt 0.4380 1.0000
vt 0.4380 0.0000
vt 0.4540 0.0000
vt 0.4540 1.0000
vt 0.4861 0.0000
vt 0.4861 1.0000
vt 0.4701 1.0000
vt 0.4701 0.0000
vt 0.4059 1.0000
vt 0.4059 0.0000
vt 0.4219 0.0000
vt 0.4219 1.0000
vt 0.6650 0.1575
vt 0.6650 0.1533
vt 0.6810 0.1533
vt 0.6810 0.1575
vt 0.3577 1.0000
vt 0.3577 0.0000
vt 0.3738 0.0000
vt 0.3738 1.0000
vt 0.4219 1.0000
vt 0.4219 0.0000
vt 0.4380 0.0000
vt 0.4380 1.0000
vt 0.4701 0.0000
vt 0.4701 1.0000
vt 0.4540 1.0000
vt 0.4540 0.0000
vt 0.3898 1.0000
vt 0.3898 0.0000
vt 0.4059 0.0000
vt 0.4059 1.0000
vt 0.6650 0.1449
vt 0.6650 0.1407
vt 0.6810 0.1407
vt 0.6810 0.1449
vt 0.6650 0.1617
vt 0.6650 0.1575
vt 0.6810 0.1575
vt 0.6810 0.1617
vt 0.6650 0.1491
vt 0.6650 0.1449
vt 0.6810 0.1449
vt 0.6810 0.1491
vt 0.1192 0.2308
vt 0.1192 0.0000
vt 0.1789 0.0000
vt 0.1789 0.2308
vt 0.9861 0.2308
vt 0.9861 0.0000
vt 1.0000 0.0000
vt 1.0000 0.2308
vt 0.2385 0.0000
vt 0.2385 0.2308
vt 0.1789 0.2308
vt 0.1789 0.0000
vt 0.9723 0.2308
vt 0.9723 0.0000
vt 0.9861 0.0000
vt 0.9861 0.2308
vt 0.6650 0.1250
vt 0.6789 0.1250
vt 0.6890 0.1407
vt 0.6752 0.1407
vt 0.7029 0.1094
vt 0.6890 0.1094
vt 0.6992 0.0938
vt 0.7131 0.0938
vt 0.7131 0.1407
vt 0.6992 0.1407
vt 0.6890 0.1250
vt 0.7029 0.1250
vt 0.6752 0.0938
vt 0.6890 0.0938
vt 0.6789 0.1094
vt 0.6650 0.1094
vt 0.3577 0.0000
vt 0.3577 0.2308
vt 0.2981 0.2308
vt 0.2981 0.0000
vt 0.0000 0.2308
vt 0.0000 0.0000
vt 0.0596 0.0000
vt 0.0596 0.2308
vn -1.0000 0.0000 0.0000
vn 0.0000 0.0000 -1.0000
vn 1.0000 0.0000 0.0000
vn 0.0000 0.0000 1.0000
vn 0.0000 -1.0000 0.0000
vn 0.0000 1.0000 0.0000
vn -0.9858 0.0000 -0.1682
vn 0.9858 0.0000 -0.1682
vn 0.9858 0.0000 0.1682
vn -0.9858 0.0000 0.1682
usemtl Material.004
s off
f 1/1/1 2/2/1 4/3/1 3/4/1
f 3/5/2 4/6/2 8/7/2 7/8/2
f 7/8/3 8/9/3 6/10/3 5/11/3
f 5/12/4 6/10/4 2/2/4 1/13/4
f 3/14/5 7/15/5 5/16/5 1/17/5
f 8/18/6 4/19/6 2/20/6 6/21/6
f 9/22/1 10/23/1 12/24/1 11/25/1
f 11/26/2 12/27/2 16/28/2 15/29/2
f 15/30/3 16/31/3 14/32/3 13/33/3
f 13/34/4 14/35/4 10/36/4 9/37/4
f 11/38/5 15/39/5 13/40/5 9/41/5
f 17/42/1 18/43/1 20/44/1 19/45/1
f 19/46/2 20/47/2 24/48/2 23/49/2
f 23/50/3 24/51/3 22/52/3 21/53/3
f 21/54/4 22/55/4 18/56/4 17/57/4
f 19/58/5 23/59/5 21/60/5 17/61/5
f 25/62/1 26/63/1 28/64/1 27/65/1
f 27/66/2 28/67/2 32/68/2 31/69/2
f 31/70/3 32/71/3 30/72/3 29/73/3
f 29/74/4 30/75/4 26/76/4 25/77/4
f 27/78/5 31/79/5 29/80/5 25/81/5
f 33/82/1 34/83/1 36/84/1 35/85/1
f 35/86/2 36/87/2 40/88/2 39/89/2
f 39/90/3 40/91/3 38/92/3 37/93/3
f 37/94/4 38/95/4 34/96/4 33/97/4
f 35/98/5 39/99/5 37/100/5 33/101/5
f 26/102/6 30/103/6 32/104/6 28/105/6
f 34/106/6 38/107/6 40/108/6 36/109/6
f 49/110/7 52/111/7 44/112/7 43/113/7
f 43/114/2 44/115/2 48/116/2 47/117/2
f 53/118/8 56/119/8 46/120/8 45/121/8
f 45/122/4 46/123/4 42/124/4 41/125/4
f 50/126/5 53/127/5 45/128/5 41/129/5
f 56/130/6 51/131/6 42/132/6 46/133/6
f 48/134/6 44/135/6 52/136/6 55/137/6
f 55/137/6 52/136/6 51/131/6 56/130/6
f 43/138/5 47/139/5 54/140/5 49/141/5
f 49/141/5 54/140/5 53/127/5 50/126/5
f 47/142/9 48/143/9 55/144/9 54/145/9
f 54/145/3 55/144/3 56/119/3 53/118/3
f 41/146/10 42/147/10 51/148/10 50/149/10
f 50/149/1 51/148/1 52/111/1 49/110/1
