mtllib materials.mtl
v 0.6364226 -1.038302 -0.3537816
v 0.6364226 -1.038302 0.2362185
v 0.6364226 0.621698 0.2362185
v 0.6364226 0.621698 -0.3537816
v 0.5464225 -1.038302 -0.3537816
v 0.5464225 0.621698 -0.3537816
v 0.5464225 0.621698 0.2362185
v 0.5464225 -1.038302 0.2362185
v 0.5464225 -1.038302 -0.3537813
v 0.5464225 -1.038302 0.2562186
v 0.5464225 -0.948302 0.2562186
v 0.5464225 -0.948302 -0.3537813
v -0.5435777 -1.038302 -0.3537813
v -0.5435777 -0.948302 -0.3537813
v -0.5435777 -0.948302 0.2562186
v -0.5435777 -1.038302 0.2562186
v -0.5435774 -1.038302 -0.3537818
v -0.5435774 -1.038302 0.2362182
v -0.5435772 0.6216978 0.2362186
v -0.543577 0.621698 -0.3537813
v -0.6335773 -1.038302 -0.3537818
v -0.6335771 0.621698 -0.3537813
v -0.6335771 0.6216978 0.2362186
v -0.6335776 -1.038302 0.2362182
v 0.5464227 0.621698 0.2362183
v 0.5464227 0.621698 -0.3537816
v 0.5464227 0.5316981 -0.3537816
v 0.5464227 0.5316981 0.2362183
v -0.5435774 0.6216978 0.2362186
v -0.5435774 0.5316979 0.2362186
v -0.5435774 0.5316979 -0.3537813
v -0.5435774 0.6216978 -0.3537813
v -0.5535772 -0.948302 -0.2637812
v -0.5535772 -0.948302 -0.3537813
v -0.5535772 0.621698 -0.3537816
v -0.5535772 0.621698 -0.2637814
v 0.5464227 -0.948302 -0.263781
v 0.5464227 0.621698 -0.2637812
v 0.5464227 0.621698 -0.3537813
v 0.5464227 -0.948302 -0.3537811
v -0.0335772 0.6116978 -0.3837813
v -0.0335772 0.7716979 -0.3837816
v -0.0335772 0.7716979 0.2662184
v 0.04642272 0.7716979 0.2662184
v 0.04642272 0.7716979 -0.3837813
v 0.04642272 0.6116978 -0.3837813
v -0.7035773 0.6116978 0.2562184
v 0.6464226 0.6116978 0.2362186
v 0.546423 -0.4527634 -0.3234082
v 0.546423 -0.4333022 0.1962185
v 0.546423 -0.4333022 -0.3237816
v -0.5435772 -0.4527634 -0.3234082
v -0.5435772 -0.4333022 -0.3237816
v -0.5435772 -0.4333022 0.1962185
v -0.5535772 -0.4627634 0.2265919
v 0.536423 -0.4627634 0.2265919
v -0.6335776 -1.038302 0.3262181
v -0.6335776 -1.038302 0.2362182
v -0.6335776 -0.9483021 0.2362182
v -0.6335776 -0.9483021 0.3262181
v -0.5435774 -1.038302 0.3262181
v -0.5435774 -0.9483021 0.3262181
v -0.5435774 -0.9483021 0.2362182
v -0.5435774 -1.038302 0.2362182
v 0.5464225 -1.038302 0.3262184
v 0.5464225 -1.038302 0.2362185
v 0.5464225 -0.948302 0.2362185
v 0.5464225 -0.948302 0.3262184
v 0.6364226 -1.038302 0.3262184
v 0.6364226 -0.948302 0.3262184
v 0.6364226 -0.948302 0.2362185
v 0.6364226 -1.038302 0.2362185
v 0.546423 0.06723654 -0.313408
v 0.546423 0.0866977 0.2062186
v 0.546423 0.0866977 -0.3137814
v -0.5435772 0.06723654 -0.3134083
v -0.5435772 0.0866977 -0.3137814
v -0.5435772 0.0866977 0.2062186
v -0.5535772 0.05723655 0.2365919
v 0.536423 0.05723655 0.2365922
v 0.6364226 0.5716981 0.2162186
v -0.6335776 0.5716978 0.2162184
v -0.6335783 0.6516978 0.2162184
v 0.6364233 0.651698 0.2162186
v 0.6364229 0.5716981 -0.2837814
v 0.6364236 0.651698 -0.2837814
v -0.6335781 0.6516978 -0.2837816
v -0.6335773 0.5716978 -0.2837816
v -0.7235773 0.611698 0.2487873
v -0.7235773 0.611698 -0.3712126
v -0.6335771 0.691698 -0.3812126
v -0.6335771 0.6916982 0.2387873
v 0.02657676 0.6704673 0.2487874
v 0.01657677 0.7504672 0.2587873
v 0.01657677 0.7504672 -0.3612126
v 0.02657676 0.670467 -0.3712126
v -0.01357722 0.651698 0.2962185
v -0.01357722 0.651698 0.2562186
v -0.01357722 0.7416979 0.2562186
v -0.01357722 0.7416979 0.2962185
v 0.02642274 0.651698 0.2962185
v 0.02642274 0.7416979 0.2962185
v 0.02642274 0.7416979 0.2562186
v 0.02642274 0.651698 0.2562186
v 0.6466534 0.6921595 0.2362186
v 0.6466532 0.6921593 -0.3837813
v 0.7366533 0.6121594 -0.3737816
v 0.7366536 0.6121594 0.2462186
v 0.006191492 0.6638516 -0.3737813
v 0.01619148 0.7438518 -0.3637811
v 0.01619172 0.7438515 0.2562189
v 0.00619173 0.6638516 0.2462189
vn 1 0 0
vn -1 0 0
vn 0 -1 0
vn 0 1 0
vn 0 0 -1
vn 0 0 1
vn 1 0 0
vn -1 0 0
vn 0 -1 0
vn 0 1 0
vn 0 0 -1
vn 0 0 1
vn 1 -1.748456E-07 1.748455E-07
vn -1 1.748456E-07 -1.748455E-07
vn -1.748455E-07 -1 -1.748456E-07
vn 1.748455E-07 1 1.748456E-07
vn 1.748456E-07 1.748456E-07 -1
vn -1.748456E-07 -1.748456E-07 1
vn 1 1.748456E-07 -1.748455E-07
vn -1 -1.748456E-07 1.748455E-07
vn -1.748455E-07 1 1.748456E-07
vn 1.748455E-07 -1 -1.748456E-07
vn 1.748456E-07 -1.748456E-07 1
vn -1.748456E-07 1.748456E-07 -1
vn -1 0 -1.748456E-07
vn 1 0 1.748456E-07
vn -3.057097E-14 -1 1.748456E-07
vn 3.057097E-14 1 -1.748456E-07
vn -1.748456E-07 1.748456E-07 1
vn 1.748456E-07 -1.748456E-07 -1
vn -1 -1.748456E-07 -8.742275E-08
vn 1 1.748456E-07 8.742275E-08
vn 1.748455E-07 -1 1.748456E-07
vn -1.748455E-07 1 -1.748456E-07
vn -1.058326E-08 -0.06237823 0.9980525
vn 8.742278E-08 -1.748456E-07 -1
vn 0.2397812 0.9426874 -0.2320464
vn 0.01468583 -0.130796 0.9913005
vn -0.2225889 0.9466544 -0.2330228
vn 1 0 0
vn -1 0 0
vn -2.563553E-12 -0.9998348 -0.01817873
vn 0 1 0
vn 1.363102E-08 -0.01917529 -0.9998162
vn -8.835037E-09 0.7178033 0.696246
vn 0.9504623 -0.3106224 0.01163348
vn -0.9504631 0.3106196 -0.01163349
vn -1 0 -8.742278E-08
vn 1 0 8.742278E-08
vn -1.528548E-14 -1 1.748456E-07
vn 1.528548E-14 1 -1.748456E-07
vn -8.742278E-08 1.748456E-07 1
vn 8.742278E-08 -1.748456E-07 -1
vn -1 0 -8.742278E-08
vn 1 0 8.742278E-08
vn -1.528548E-14 -1 1.748456E-07
vn 1.528548E-14 1 -1.748456E-07
vn -8.742278E-08 1.748456E-07 1
vn 8.742278E-08 -1.748456E-07 -1
vn 1 0 8.742278E-08
vn -1 0 -8.742278E-08
vn 1.586671E-09 -0.9998348 -0.01817873
vn 0 1 0
vn 1.010377E-07 -0.01917529 -0.9998162
vn -6.970279E-08 0.7178033 0.696246
vn 0.9504623 -0.3106224 0.01163356
vn -0.9504631 0.3106196 -0.01163357
vn -1.192093E-07 0 1
vn 1.192093E-07 0 -1
vn 1.748456E-07 -1 0
vn -1.748456E-07 1 0
vn 1 1.748456E-07 1.192093E-07
vn -1 -1.748456E-07 -1.192093E-07
vn -0.6643628 0.7474102 2.248418E-09
vn 0.9922779 0.1240346 1.502922E-08
vn 0.07810356 -0.9969453 3.940728E-07
vn -0.09002575 0.9959395 -3.853218E-07
vn 0.009623702 -0.1228432 0.9923794
vn -0.00962393 0.1228442 -0.9923792
vn -0.04605146 0.1747496 0.9835353
vn 0.04605159 -0.1747502 -0.9835352
vn -1 -1.748456E-07 -8.742275E-08
vn 1 1.748456E-07 8.742275E-08
vn 1.748455E-07 -1 1.748456E-07
vn -1.748455E-07 1 -1.748456E-07
vn -8.742278E-08 1.748456E-07 1
vn 8.742278E-08 -1.748456E-07 -1
vn -0.6643628 0.7474102 7.900702E-08
vn -0.9922779 0.1240343 4.050945E-07
vn -0.07058994 -0.9975054 2.869114E-08
vn 0.08171725 0.9966555 3.456119E-07
vn -0.008700948 -0.1229591 0.9923736
vn 0.008701093 0.1229616 -0.9923733
vn 0.045482 0.1741259 0.9836725
vn -0.04548188 -0.1741234 -0.9836729
usemtl mat20
f 4//1 3//1 2//1 1//1
f 8//2 7//2 6//2 5//2
f 2//3 8//3 5//3 1//3
f 6//4 7//4 3//4 4//4
f 5//5 6//5 4//5 1//5
f 3//6 7//6 8//6 2//6
f 12//7 11//7 10//7 9//7
f 16//8 15//8 14//8 13//8
f 10//9 16//9 13//9 9//9
f 14//10 15//10 11//10 12//10
f 13//11 14//11 12//11 9//11
f 11//12 15//12 16//12 10//12
f 20//13 19//13 18//13 17//13
f 24//14 23//14 22//14 21//14
f 18//15 24//15 21//15 17//15
f 22//16 23//16 19//16 20//16
f 21//17 22//17 20//17 17//17
f 19//18 23//18 24//18 18//18
f 28//19 27//19 26//19 25//19
f 32//20 31//20 30//20 29//20
f 26//21 32//21 29//21 25//21
f 30//22 31//22 27//22 28//22
f 29//23 30//23 28//23 25//23
f 27//24 31//24 32//24 26//24
f 36//25 35//25 34//25 33//25
f 40//26 39//26 38//26 37//26
f 34//27 40//27 37//27 33//27
f 38//28 39//28 35//28 36//28
f 37//29 38//29 36//29 33//29
f 35//30 39//30 40//30 34//30
f 43//31 42//31 41//31
f 46//32 45//32 44//32
f 41//33 46//33 48//33 47//33
f 44//34 45//34 42//34 43//34
f 44//35 43//35 47//35
f 42//36 45//36 46//36 41//36
f 44//37 48//37 46//37
f 47//38 48//38 44//38
f 41//39 47//39 43//39
f 51//40 50//40 49//40
f 54//41 53//41 52//41
f 56//42 55//42 52//42 49//42
f 53//43 54//43 50//43 51//43
f 52//44 53//44 51//44 49//44
f 50//45 54//45 55//45 56//45
f 50//46 56//46 49//46
f 52//47 55//47 54//47
f 60//48 59//48 58//48 57//48
f 64//49 63//49 62//49 61//49
f 58//50 64//50 61//50 57//50
f 62//51 63//51 59//51 60//51
f 61//52 62//52 60//52 57//52
f 59//53 63//53 64//53 58//53
f 68//54 67//54 66//54 65//54
f 72//55 71//55 70//55 69//55
f 66//56 72//56 69//56 65//56
f 70//57 71//57 67//57 68//57
f 69//58 70//58 68//58 65//58
f 67//59 71//59 72//59 66//59
f 75//60 74//60 73//60
f 78//61 77//61 76//61
f 80//62 79//62 76//62 73//62
f 77//63 78//63 74//63 75//63
f 76//64 77//64 75//64 73//64
f 74//65 78//65 79//65 80//65
f 74//66 80//66 73//66
f 76//67 79//67 78//67
f 84//68 83//68 82//68 81//68
f 88//69 87//69 86//69 85//69
f 82//70 88//70 85//70 81//70
f 86//71 87//71 83//71 84//71
f 85//72 86//72 84//72 81//72
f 83//73 87//73 88//73 82//73
f 92//74 91//74 90//74 89//74
f 96//75 95//75 94//75 93//75
f 90//76 96//76 93//76 89//76
f 94//77 95//77 91//77 92//77
f 93//78 94//78 89//78
f 95//79 96//79 90//79
f 94//80 92//80 89//80
f 90//81 91//81 95//81
f 108//88 107//88 106//88 105//88
f 112//89 111//89 110//89 109//89
f 108//90 112//90 109//90 107//90
f 105//91 106//91 110//91 111//91
f 108//92 111//92 112//92
f 107//93 109//93 110//93
f 108//94 105//94 111//94
f 110//95 106//95 107//95
usemtl mat22
f 100//82 99//82 98//82 97//82
f 104//83 103//83 102//83 101//83
f 98//84 104//84 101//84 97//84
f 102//85 103//85 99//85 100//85
f 101//86 102//86 100//86 97//86
f 99//87 103//87 104//87 98//87
